<svg width="31" height="32" viewBox="0 0 31 32" fill="none" xmlns="http://www.w3.org/2000/svg">
<path d="M11.3205 14.4326C11.1691 14.4175 10.9874 14.4175 10.8208 14.4326C7.21655 14.3115 4.35436 11.3584 4.35436 7.72388C4.35436 4.01363 7.35285 1 11.0782 1C14.7885 1 17.8021 4.01363 17.8021 7.72388C17.787 11.3584 14.9248 14.3115 11.3205 14.4326Z" stroke="#4733AC" stroke-width="1.5" stroke-linecap="round" stroke-linejoin="round"/>
<path d="M22.2998 4.02878C25.2378 4.02878 27.6002 6.40637 27.6002 9.32913C27.6002 12.1913 25.3286 14.5235 22.4967 14.6295C22.3756 14.6143 22.2393 14.6143 22.103 14.6295" stroke="#4733AC" stroke-width="1.5" stroke-linecap="round" stroke-linejoin="round"/>
<path d="M3.74861 20.0207C0.083796 22.474 0.083796 26.472 3.74861 28.9101C7.91318 31.6966 14.7431 31.6966 18.9076 28.9101C22.5724 26.4568 22.5724 22.4589 18.9076 20.0207C14.7582 17.2494 7.92832 17.2494 3.74861 20.0207Z" stroke="#4733AC" stroke-width="1.5" stroke-linecap="round" stroke-linejoin="round"/>
<path d="M25.2226 28.259C26.313 28.0318 27.3428 27.5926 28.1908 26.9414C30.5533 25.1696 30.5533 22.2468 28.1908 20.475C27.3579 19.839 26.3433 19.4149 25.2681 19.1726" stroke="#4733AC" stroke-width="1.5" stroke-linecap="round" stroke-linejoin="round"/>
</svg>
